<svg width="935" height="935" viewBox="0 0 935 935" fill="none" xmlns="http://www.w3.org/2000/svg">
<path d="M98.4253 573.665C-32.8083 442.431 -32.8085 229.659 98.4252 98.4253C229.659 -32.8084 442.431 -32.8084 573.664 98.4253L836.251 361.012C967.485 492.246 967.485 705.018 836.251 836.251C705.018 967.485 492.246 967.485 361.012 836.251L98.4253 573.665Z" fill="#D1A227"/>
<rect x="120.182" y="85.1816" width="694" height="783" rx="50" fill="#060503"/>
<path d="M175.414 163.555C173.497 163.555 171.718 163.219 170.075 162.547C168.432 161.875 167.001 160.942 165.782 159.747C164.587 158.527 163.654 157.096 162.982 155.454C162.31 153.811 161.974 152.031 161.974 150.115C161.974 148.198 162.31 146.419 162.982 144.776C163.654 143.134 164.587 141.715 165.782 140.52C167.001 139.301 168.432 138.355 170.075 137.683C171.718 137.011 173.497 136.675 175.414 136.675C176.733 136.675 178.002 136.837 179.222 137.16C180.466 137.459 181.574 137.919 182.544 138.542C182.719 138.666 182.843 138.815 182.918 138.99C183.017 139.139 183.067 139.301 183.067 139.475C183.067 139.823 182.955 140.11 182.731 140.334C182.507 140.533 182.271 140.632 182.022 140.632C181.897 140.632 181.773 140.62 181.648 140.595C181.549 140.545 181.449 140.495 181.35 140.446C180.503 139.973 179.583 139.599 178.587 139.326C177.591 139.052 176.534 138.915 175.414 138.915C173.273 138.915 171.369 139.4 169.702 140.371C168.034 141.342 166.727 142.673 165.782 144.366C164.836 146.058 164.363 147.974 164.363 150.115C164.363 152.255 164.836 154.172 165.782 155.864C166.727 157.557 168.034 158.888 169.702 159.859C171.369 160.83 173.273 161.315 175.414 161.315C176.534 161.315 177.654 161.153 178.774 160.83C179.919 160.506 180.902 160.07 181.723 159.523L181.536 160.307V151.72L182.096 152.243H175.638C175.314 152.243 175.04 152.131 174.816 151.907C174.592 151.683 174.48 151.422 174.48 151.123C174.48 150.774 174.592 150.501 174.816 150.302C175.04 150.102 175.314 150.003 175.638 150.003H182.768C183.092 150.003 183.353 150.115 183.552 150.339C183.776 150.538 183.888 150.799 183.888 151.123V160.12C183.888 160.319 183.839 160.506 183.739 160.68C183.639 160.854 183.503 161.004 183.328 161.128C182.233 161.875 181.001 162.472 179.632 162.92C178.288 163.343 176.882 163.555 175.414 163.555ZM190.209 163.182C189.861 163.182 189.587 163.07 189.388 162.846C189.189 162.622 189.089 162.36 189.089 162.062V145.336C189.089 145.038 189.189 144.776 189.388 144.552C189.612 144.328 189.886 144.216 190.209 144.216C190.533 144.216 190.794 144.328 190.993 144.552C191.217 144.776 191.329 145.038 191.329 145.336V150.936L190.769 151.048C190.844 150.177 191.056 149.318 191.404 148.472C191.777 147.601 192.275 146.805 192.897 146.083C193.52 145.361 194.254 144.776 195.1 144.328C195.971 143.88 196.942 143.656 198.012 143.656C198.46 143.656 198.896 143.756 199.319 143.955C199.742 144.129 199.953 144.428 199.953 144.851C199.953 145.224 199.854 145.51 199.655 145.71C199.456 145.909 199.219 146.008 198.945 146.008C198.721 146.008 198.472 145.946 198.199 145.822C197.95 145.697 197.614 145.635 197.191 145.635C196.494 145.635 195.797 145.846 195.1 146.27C194.403 146.668 193.768 147.215 193.196 147.912C192.624 148.609 192.163 149.393 191.815 150.264C191.491 151.11 191.329 151.969 191.329 152.84V162.062C191.329 162.36 191.217 162.622 190.993 162.846C190.769 163.07 190.508 163.182 190.209 163.182ZM220.386 153.624C220.386 155.516 219.975 157.221 219.154 158.739C218.333 160.232 217.213 161.414 215.794 162.286C214.375 163.132 212.758 163.555 210.941 163.555C209.174 163.555 207.568 163.132 206.125 162.286C204.706 161.414 203.574 160.232 202.727 158.739C201.906 157.221 201.495 155.516 201.495 153.624C201.495 151.708 201.906 150.003 202.727 148.51C203.574 147.016 204.706 145.834 206.125 144.963C207.568 144.092 209.174 143.656 210.941 143.656C212.758 143.656 214.375 144.092 215.794 144.963C217.213 145.834 218.333 147.016 219.154 148.51C219.975 150.003 220.386 151.708 220.386 153.624ZM218.146 153.624C218.146 152.106 217.835 150.762 217.213 149.592C216.59 148.398 215.732 147.464 214.637 146.792C213.566 146.095 212.334 145.747 210.941 145.747C209.597 145.747 208.377 146.095 207.282 146.792C206.187 147.464 205.316 148.398 204.669 149.592C204.046 150.762 203.735 152.106 203.735 153.624C203.735 155.142 204.046 156.486 204.669 157.656C205.316 158.826 206.187 159.759 207.282 160.456C208.377 161.128 209.597 161.464 210.941 161.464C212.334 161.464 213.566 161.128 214.637 160.456C215.732 159.759 216.59 158.826 217.213 157.656C217.835 156.486 218.146 155.142 218.146 153.624ZM239.408 144.216C239.731 144.216 239.993 144.328 240.192 144.552C240.416 144.776 240.528 145.038 240.528 145.336V155.864C240.528 158.328 239.831 160.207 238.437 161.502C237.043 162.796 235.164 163.443 232.8 163.443C230.46 163.443 228.594 162.796 227.2 161.502C225.831 160.207 225.147 158.328 225.147 155.864V145.336C225.147 145.038 225.246 144.776 225.445 144.552C225.669 144.328 225.943 144.216 226.267 144.216C226.59 144.216 226.851 144.328 227.051 144.552C227.275 144.776 227.387 145.038 227.387 145.336V155.864C227.387 157.656 227.859 159.025 228.805 159.971C229.776 160.892 231.107 161.352 232.8 161.352C234.517 161.352 235.861 160.892 236.832 159.971C237.803 159.025 238.288 157.656 238.288 155.864V145.336C238.288 145.038 238.387 144.776 238.587 144.552C238.786 144.328 239.059 144.216 239.408 144.216ZM255.474 143.955C257.166 143.955 258.66 144.378 259.954 145.224C261.273 146.046 262.318 147.19 263.09 148.659C263.861 150.102 264.247 151.77 264.247 153.662C264.247 155.553 263.861 157.233 263.09 158.702C262.318 160.17 261.273 161.327 259.954 162.174C258.635 163.02 257.154 163.443 255.511 163.443C254.64 163.443 253.806 163.318 253.01 163.07C252.238 162.796 251.529 162.435 250.882 161.987C250.235 161.539 249.662 161.016 249.164 160.419C248.667 159.797 248.268 159.125 247.97 158.403L248.642 157.918V169.528C248.642 169.827 248.53 170.088 248.306 170.312C248.107 170.536 247.845 170.648 247.522 170.648C247.198 170.648 246.924 170.536 246.7 170.312C246.501 170.088 246.402 169.827 246.402 169.528V145.187C246.402 144.863 246.501 144.59 246.7 144.366C246.9 144.142 247.173 144.03 247.522 144.03C247.845 144.03 248.107 144.142 248.306 144.366C248.53 144.59 248.642 144.863 248.642 145.187V149.219L248.119 148.92C248.368 148.149 248.729 147.464 249.202 146.867C249.7 146.245 250.272 145.722 250.919 145.299C251.566 144.851 252.276 144.515 253.047 144.291C253.819 144.067 254.628 143.955 255.474 143.955ZM255.287 146.046C253.943 146.046 252.761 146.382 251.74 147.054C250.72 147.701 249.911 148.597 249.314 149.742C248.741 150.862 248.455 152.168 248.455 153.662C248.455 155.13 248.741 156.449 249.314 157.619C249.911 158.789 250.72 159.71 251.74 160.382C252.761 161.029 253.943 161.352 255.287 161.352C256.606 161.352 257.764 161.029 258.759 160.382C259.78 159.71 260.588 158.789 261.186 157.619C261.783 156.449 262.082 155.13 262.082 153.662C262.082 152.193 261.783 150.886 261.186 149.742C260.588 148.597 259.78 147.701 258.759 147.054C257.764 146.382 256.606 146.046 255.287 146.046ZM267.96 160.158C267.761 159.859 267.661 159.573 267.661 159.299C267.686 159 267.848 158.764 268.146 158.59C268.346 158.415 268.57 158.341 268.818 158.366C269.092 158.39 269.341 158.515 269.565 158.739C270.237 159.61 271.046 160.319 271.992 160.867C272.962 161.39 274.107 161.651 275.426 161.651C276.123 161.651 276.808 161.539 277.48 161.315C278.177 161.066 278.749 160.705 279.197 160.232C279.645 159.734 279.869 159.112 279.869 158.366C279.869 157.594 279.645 156.972 279.197 156.499C278.749 156.026 278.164 155.653 277.442 155.379C276.746 155.105 275.999 154.869 275.202 154.67C274.356 154.446 273.535 154.197 272.738 153.923C271.942 153.624 271.233 153.263 270.61 152.84C270.013 152.392 269.528 151.857 269.154 151.235C268.781 150.613 268.594 149.854 268.594 148.958C268.594 147.912 268.881 146.991 269.453 146.195C270.026 145.398 270.797 144.776 271.768 144.328C272.763 143.88 273.883 143.656 275.128 143.656C275.75 143.656 276.422 143.743 277.144 143.918C277.866 144.067 278.575 144.328 279.272 144.702C279.969 145.075 280.591 145.585 281.138 146.232C281.362 146.456 281.474 146.718 281.474 147.016C281.474 147.29 281.35 147.539 281.101 147.763C280.902 147.912 280.666 147.987 280.392 147.987C280.143 147.987 279.931 147.887 279.757 147.688C279.16 147.016 278.45 146.506 277.629 146.158C276.808 145.809 275.924 145.635 274.978 145.635C274.257 145.635 273.572 145.759 272.925 146.008C272.303 146.232 271.78 146.581 271.357 147.054C270.934 147.526 270.722 148.149 270.722 148.92C270.772 149.642 271.021 150.227 271.469 150.675C271.942 151.123 272.552 151.496 273.298 151.795C274.07 152.094 274.929 152.367 275.874 152.616C276.671 152.815 277.43 153.052 278.152 153.326C278.898 153.599 279.546 153.948 280.093 154.371C280.666 154.769 281.114 155.279 281.437 155.902C281.786 156.524 281.96 157.308 281.96 158.254C281.96 159.349 281.649 160.294 281.026 161.091C280.429 161.887 279.62 162.497 278.6 162.92C277.579 163.343 276.447 163.555 275.202 163.555C273.858 163.555 272.552 163.294 271.282 162.771C270.038 162.248 268.93 161.377 267.96 160.158Z" fill="white"/>
<circle cx="750.182" cy="149.182" r="29" stroke="#D1A227" stroke-width="0.591837"/>
<path d="M749.682 140.182V159.182" stroke="white" stroke-width="1.54054"/>
<path d="M759.182 149.682L740.182 149.682" stroke="white" stroke-width="1.54054"/>
<rect x="55.9036" y="213.182" width="822.556" height="163" rx="46.8992" fill="#15120B"/>
<path d="M150.725 286.96L142.098 307.666C141.944 308.075 141.714 308.394 141.407 308.624C141.101 308.855 140.756 308.97 140.372 308.97C139.81 308.97 139.388 308.816 139.107 308.509C138.826 308.177 138.672 307.768 138.647 307.282C138.647 307.103 138.685 306.899 138.762 306.669L148.501 283.126C148.68 282.691 148.936 282.359 149.268 282.129C149.626 281.899 150.009 281.797 150.418 281.822C150.802 281.822 151.16 281.937 151.492 282.167C151.824 282.397 152.067 282.717 152.22 283.126L161.845 306.324C161.947 306.579 161.998 306.835 161.998 307.091C161.998 307.653 161.806 308.113 161.423 308.471C161.065 308.803 160.656 308.97 160.196 308.97C159.812 308.97 159.455 308.855 159.122 308.624C158.816 308.369 158.585 308.049 158.432 307.666L149.728 287.075L150.725 286.96ZM143.631 302.221L145.357 298.54H156.208L156.86 302.221H143.631ZM169.46 306.861C169.46 307.423 169.268 307.896 168.885 308.279C168.527 308.637 168.079 308.816 167.543 308.816C167.006 308.816 166.546 308.637 166.162 308.279C165.804 307.896 165.625 307.423 165.625 306.861V282.397C165.625 281.835 165.817 281.375 166.201 281.017C166.584 280.633 167.044 280.442 167.581 280.442C168.143 280.442 168.591 280.633 168.923 281.017C169.281 281.375 169.46 281.835 169.46 282.397V306.861ZM185.328 288.302C187.117 288.302 188.702 288.75 190.083 289.644C191.488 290.539 192.6 291.766 193.418 293.325C194.236 294.859 194.645 296.648 194.645 298.693C194.645 300.738 194.236 302.553 193.418 304.138C192.6 305.698 191.501 306.925 190.121 307.819C188.741 308.714 187.181 309.161 185.443 309.161C184.472 309.161 183.551 309.008 182.682 308.701C181.813 308.394 181.046 307.998 180.382 307.512C179.717 307.001 179.167 306.464 178.733 305.902C178.324 305.34 178.068 304.816 177.966 304.33L179.001 303.831V314.529C179.001 315.092 178.809 315.552 178.426 315.91C178.068 316.293 177.621 316.485 177.084 316.485C176.522 316.485 176.061 316.293 175.704 315.91C175.346 315.552 175.167 315.092 175.167 314.529V290.526C175.167 289.989 175.346 289.529 175.704 289.146C176.061 288.762 176.522 288.571 177.084 288.571C177.621 288.571 178.068 288.762 178.426 289.146C178.809 289.529 179.001 289.989 179.001 290.526V293.172L178.388 292.827C178.464 292.341 178.707 291.843 179.116 291.331C179.525 290.795 180.036 290.296 180.65 289.836C181.289 289.376 182.005 289.005 182.797 288.724C183.615 288.443 184.459 288.302 185.328 288.302ZM184.906 291.83C183.679 291.83 182.606 292.137 181.685 292.75C180.791 293.338 180.088 294.143 179.576 295.166C179.065 296.188 178.809 297.364 178.809 298.693C178.809 299.997 179.065 301.186 179.576 302.259C180.088 303.307 180.791 304.138 181.685 304.752C182.606 305.34 183.679 305.634 184.906 305.634C186.108 305.634 187.156 305.34 188.05 304.752C188.945 304.138 189.648 303.307 190.159 302.259C190.696 301.186 190.964 299.997 190.964 298.693C190.964 297.39 190.696 296.227 190.159 295.204C189.648 294.156 188.945 293.338 188.05 292.75C187.156 292.137 186.108 291.83 184.906 291.83ZM209.143 288.302C210.907 288.302 212.274 288.686 213.246 289.453C214.217 290.194 214.895 291.204 215.278 292.482C215.687 293.76 215.892 295.166 215.892 296.7V306.861C215.892 307.423 215.7 307.896 215.316 308.279C214.959 308.637 214.511 308.816 213.974 308.816C213.412 308.816 212.952 308.637 212.594 308.279C212.236 307.896 212.057 307.423 212.057 306.861V296.7C212.057 295.805 211.929 294.987 211.674 294.246C211.444 293.504 211.022 292.916 210.408 292.482C209.82 292.047 208.99 291.83 207.916 291.83C206.919 291.83 206.024 292.047 205.232 292.482C204.465 292.916 203.864 293.504 203.43 294.246C203.021 294.987 202.816 295.805 202.816 296.7V306.861C202.816 307.423 202.625 307.896 202.241 308.279C201.883 308.637 201.436 308.816 200.899 308.816C200.337 308.816 199.877 308.637 199.519 308.279C199.161 307.896 198.982 307.423 198.982 306.861V282.397C198.982 281.835 199.161 281.375 199.519 281.017C199.877 280.633 200.337 280.442 200.899 280.442C201.436 280.442 201.883 280.633 202.241 281.017C202.625 281.375 202.816 281.835 202.816 282.397V292.865L202.126 293.249C202.305 292.686 202.599 292.111 203.008 291.523C203.443 290.935 203.967 290.398 204.58 289.913C205.219 289.427 205.922 289.044 206.689 288.762C207.456 288.456 208.274 288.302 209.143 288.302ZM237.751 288.341C238.313 288.341 238.773 288.532 239.131 288.916C239.489 289.274 239.668 289.734 239.668 290.296V306.861C239.668 307.423 239.489 307.896 239.131 308.279C238.773 308.637 238.313 308.816 237.751 308.816C237.214 308.816 236.754 308.637 236.37 308.279C236.012 307.896 235.833 307.423 235.833 306.861V304.1L236.639 304.215C236.639 304.675 236.447 305.186 236.063 305.749C235.706 306.311 235.207 306.861 234.568 307.397C233.929 307.909 233.175 308.343 232.306 308.701C231.437 309.033 230.504 309.2 229.507 309.2C227.743 309.2 226.158 308.752 224.752 307.858C223.346 306.937 222.234 305.685 221.416 304.1C220.598 302.515 220.189 300.713 220.189 298.693C220.189 296.623 220.598 294.808 221.416 293.249C222.234 291.664 223.333 290.424 224.714 289.529C226.12 288.635 227.679 288.187 229.392 288.187C230.491 288.187 231.5 288.366 232.421 288.724C233.367 289.082 234.185 289.542 234.875 290.104C235.565 290.667 236.089 291.267 236.447 291.907C236.83 292.52 237.022 293.108 237.022 293.67L235.833 293.785V290.296C235.833 289.759 236.012 289.299 236.37 288.916C236.754 288.532 237.214 288.341 237.751 288.341ZM229.928 305.672C231.13 305.672 232.191 305.365 233.111 304.752C234.031 304.138 234.747 303.307 235.258 302.259C235.769 301.186 236.025 299.997 236.025 298.693C236.025 297.364 235.769 296.175 235.258 295.127C234.747 294.079 234.031 293.249 233.111 292.635C232.191 292.022 231.13 291.715 229.928 291.715C228.752 291.715 227.704 292.022 226.784 292.635C225.889 293.249 225.174 294.079 224.637 295.127C224.126 296.175 223.87 297.364 223.87 298.693C223.87 299.997 224.126 301.186 224.637 302.259C225.174 303.307 225.889 304.138 226.784 304.752C227.704 305.365 228.752 305.672 229.928 305.672ZM267.905 281.975C270.256 281.975 272.033 282.551 273.234 283.701C274.461 284.851 275.075 286.526 275.075 288.724C275.075 289.874 274.794 290.922 274.231 291.868C273.695 292.788 272.889 293.517 271.816 294.054C270.768 294.591 269.451 294.872 267.866 294.897L267.943 293.479C268.787 293.479 269.694 293.594 270.665 293.824C271.662 294.054 272.595 294.45 273.464 295.012C274.334 295.575 275.049 296.342 275.612 297.313C276.174 298.259 276.455 299.447 276.455 300.879C276.455 302.438 276.2 303.742 275.688 304.79C275.177 305.813 274.5 306.618 273.656 307.206C272.813 307.794 271.88 308.215 270.857 308.471C269.86 308.701 268.876 308.816 267.905 308.816H258.089C257.552 308.816 257.092 308.637 256.708 308.279C256.325 307.896 256.133 307.423 256.133 306.861V283.931C256.133 283.369 256.325 282.909 256.708 282.551C257.092 282.167 257.552 281.975 258.089 281.975H267.905ZM267.368 285.733H259.814L260.274 285.12V293.364L259.852 292.942H267.445C268.365 292.916 269.17 292.61 269.86 292.022C270.576 291.408 270.934 290.513 270.934 289.337C270.934 288.136 270.614 287.241 269.975 286.653C269.336 286.04 268.467 285.733 267.368 285.733ZM267.636 296.7H260.006L260.274 296.431V305.48L259.967 305.135H267.866C269.196 305.135 270.269 304.79 271.087 304.1C271.905 303.384 272.314 302.31 272.314 300.879C272.314 299.678 272.071 298.783 271.586 298.195C271.1 297.607 270.499 297.211 269.783 297.006C269.068 296.802 268.352 296.7 267.636 296.7ZM300.087 298.732C300.087 300.777 299.64 302.592 298.745 304.177C297.851 305.736 296.636 306.963 295.103 307.858C293.569 308.752 291.843 309.2 289.926 309.2C288.009 309.2 286.284 308.752 284.75 307.858C283.216 306.963 281.989 305.736 281.069 304.177C280.174 302.592 279.727 300.777 279.727 298.732C279.727 296.661 280.174 294.846 281.069 293.287C281.989 291.702 283.216 290.462 284.75 289.568C286.284 288.647 288.009 288.187 289.926 288.187C291.843 288.187 293.569 288.647 295.103 289.568C296.636 290.462 297.851 291.702 298.745 293.287C299.64 294.846 300.087 296.661 300.087 298.732ZM296.253 298.732C296.253 297.326 295.972 296.112 295.409 295.089C294.847 294.041 294.08 293.223 293.109 292.635C292.163 292.022 291.102 291.715 289.926 291.715C288.75 291.715 287.677 292.022 286.705 292.635C285.734 293.223 284.967 294.041 284.405 295.089C283.842 296.112 283.561 297.326 283.561 298.732C283.561 300.087 283.842 301.288 284.405 302.336C284.967 303.384 285.734 304.202 286.705 304.79C287.677 305.378 288.75 305.672 289.926 305.672C291.102 305.672 292.163 305.378 293.109 304.79C294.08 304.202 294.847 303.384 295.409 302.336C295.972 301.288 296.253 300.087 296.253 298.732ZM319.42 288.494C319.982 288.494 320.442 288.686 320.8 289.069C321.158 289.427 321.337 289.887 321.337 290.449V306.937C321.337 309.187 320.902 311.015 320.033 312.42C319.19 313.826 318.039 314.849 316.582 315.488C315.151 316.153 313.528 316.485 311.713 316.485C310.792 316.485 309.872 316.395 308.952 316.217C308.032 316.063 307.278 315.833 306.69 315.526C306.076 315.245 305.642 314.9 305.386 314.491C305.13 314.082 305.092 313.635 305.271 313.149C305.45 312.536 305.757 312.114 306.191 311.884C306.626 311.679 307.073 311.666 307.533 311.845C307.968 312.024 308.543 312.254 309.259 312.536C309.974 312.817 310.792 312.957 311.713 312.957C312.965 312.957 314.026 312.753 314.895 312.344C315.764 311.935 316.416 311.296 316.851 310.427C317.311 309.557 317.541 308.433 317.541 307.052V304.407L318.155 305.327C317.746 306.17 317.209 306.873 316.544 307.436C315.879 307.998 315.087 308.433 314.167 308.739C313.272 309.046 312.275 309.2 311.176 309.2C309.77 309.2 308.556 308.893 307.533 308.279C306.536 307.64 305.769 306.771 305.233 305.672C304.696 304.547 304.427 303.269 304.427 301.838V290.449C304.427 289.887 304.606 289.427 304.964 289.069C305.322 288.686 305.782 288.494 306.345 288.494C306.881 288.494 307.329 288.686 307.687 289.069C308.07 289.427 308.262 289.887 308.262 290.449V300.802C308.262 302.489 308.632 303.729 309.374 304.522C310.115 305.289 311.214 305.672 312.671 305.672C313.643 305.672 314.486 305.467 315.202 305.058C315.918 304.649 316.48 304.087 316.889 303.371C317.298 302.63 317.503 301.774 317.503 300.802V290.449C317.503 289.887 317.682 289.427 318.039 289.069C318.423 288.686 318.883 288.494 319.42 288.494ZM325.144 305.672C324.914 305.314 324.812 304.905 324.837 304.445C324.863 303.959 325.131 303.55 325.643 303.218C326.001 302.988 326.371 302.898 326.755 302.95C327.164 302.975 327.547 303.167 327.905 303.525C328.621 304.317 329.413 304.943 330.282 305.404C331.177 305.864 332.251 306.094 333.503 306.094C334.014 306.068 334.538 305.992 335.075 305.864C335.612 305.71 336.072 305.455 336.456 305.097C336.839 304.713 337.031 304.164 337.031 303.448C337.031 302.809 336.826 302.298 336.417 301.914C336.008 301.531 335.471 301.224 334.807 300.994C334.142 300.738 333.426 300.508 332.66 300.304C331.842 300.074 331.011 299.818 330.167 299.537C329.349 299.256 328.608 298.898 327.943 298.463C327.279 298.003 326.729 297.415 326.294 296.7C325.885 295.984 325.681 295.102 325.681 294.054C325.681 292.852 326.013 291.817 326.678 290.948C327.368 290.079 328.25 289.401 329.324 288.916C330.423 288.43 331.611 288.187 332.89 288.187C333.631 288.187 334.411 288.289 335.229 288.494C336.047 288.673 336.839 288.967 337.606 289.376C338.373 289.785 339.037 290.322 339.6 290.986C339.855 291.319 339.996 291.715 340.022 292.175C340.073 292.635 339.868 293.044 339.408 293.402C339.101 293.658 338.731 293.773 338.296 293.747C337.862 293.721 337.504 293.581 337.222 293.325C336.737 292.712 336.111 292.239 335.344 291.907C334.577 291.549 333.708 291.37 332.736 291.37C332.251 291.37 331.739 291.446 331.202 291.6C330.691 291.728 330.257 291.97 329.899 292.328C329.541 292.686 329.362 293.21 329.362 293.9C329.362 294.539 329.566 295.051 329.975 295.434C330.41 295.818 330.972 296.137 331.663 296.393C332.353 296.648 333.107 296.878 333.925 297.083C334.717 297.287 335.497 297.53 336.264 297.811C337.056 298.093 337.759 298.463 338.373 298.923C339.012 299.358 339.523 299.933 339.907 300.649C340.316 301.339 340.52 302.221 340.52 303.295C340.52 304.547 340.149 305.621 339.408 306.516C338.692 307.385 337.772 308.049 336.647 308.509C335.548 308.97 334.385 309.2 333.158 309.2C331.701 309.2 330.244 308.944 328.787 308.433C327.355 307.896 326.141 306.976 325.144 305.672Z" fill="white"/>
<rect x="91.5261" y="246.339" width="676.8" height="96.6857" rx="48.3428" stroke="#D1A227" stroke-width="1.22387"/>
<path d="M835.065 282.519H828.372V281.181C828.372 280.116 827.949 279.094 827.196 278.341C826.443 277.588 825.421 277.165 824.356 277.165H816.324C815.259 277.165 814.238 277.588 813.485 278.341C812.732 279.094 812.309 280.116 812.309 281.181V282.519H805.616C805.261 282.519 804.92 282.66 804.669 282.911C804.418 283.163 804.277 283.503 804.277 283.858C804.277 284.213 804.418 284.554 804.669 284.805C804.92 285.056 805.261 285.197 805.616 285.197H806.954V309.292C806.954 310.002 807.236 310.683 807.738 311.185C808.24 311.687 808.921 311.969 809.631 311.969H831.049C831.759 311.969 832.44 311.687 832.942 311.185C833.444 310.683 833.726 310.002 833.726 309.292V285.197H835.065C835.42 285.197 835.76 285.056 836.011 284.805C836.262 284.554 836.403 284.213 836.403 283.858C836.403 283.503 836.262 283.163 836.011 282.911C835.76 282.66 835.42 282.519 835.065 282.519ZM814.986 281.181C814.986 280.826 815.127 280.485 815.378 280.234C815.629 279.983 815.969 279.842 816.324 279.842H824.356C824.711 279.842 825.052 279.983 825.303 280.234C825.554 280.485 825.695 280.826 825.695 281.181V282.519H814.986V281.181ZM831.049 309.292H809.631V285.197H831.049V309.292ZM817.663 291.89V302.599C817.663 302.954 817.522 303.294 817.271 303.545C817.02 303.796 816.679 303.937 816.324 303.937C815.969 303.937 815.629 303.796 815.378 303.545C815.127 303.294 814.986 302.954 814.986 302.599V291.89C814.986 291.535 815.127 291.194 815.378 290.943C815.629 290.692 815.969 290.551 816.324 290.551C816.679 290.551 817.02 290.692 817.271 290.943C817.522 291.194 817.663 291.535 817.663 291.89ZM825.695 291.89V302.599C825.695 302.954 825.554 303.294 825.303 303.545C825.052 303.796 824.711 303.937 824.356 303.937C824.001 303.937 823.661 303.796 823.409 303.545C823.158 303.294 823.017 302.954 823.017 302.599V291.89C823.017 291.535 823.158 291.194 823.409 290.943C823.661 290.692 824.001 290.551 824.356 290.551C824.711 290.551 825.052 290.692 825.303 290.943C825.554 291.194 825.695 291.535 825.695 291.89Z" fill="white"/>
<rect x="93.7512" y="393.182" width="746.861" height="148" rx="42.5833" fill="#15120B"/>
<path d="M172.988 480.512C172.431 480.512 171.978 480.35 171.63 480.025C171.305 479.677 171.143 479.247 171.143 478.737V457.917C171.143 457.407 171.317 456.989 171.665 456.664C172.013 456.316 172.431 456.142 172.918 456.142H184.686C185.197 456.142 185.614 456.304 185.939 456.629C186.288 456.954 186.462 457.36 186.462 457.848C186.462 458.289 186.288 458.672 185.939 458.997C185.614 459.321 185.197 459.484 184.686 459.484H174.52L174.764 459.136V466.9L174.555 466.482H183.119C183.63 466.482 184.048 466.644 184.373 466.969C184.721 467.294 184.895 467.7 184.895 468.188C184.895 468.629 184.721 469.012 184.373 469.337C184.048 469.662 183.63 469.824 183.119 469.824H174.485L174.764 469.546V478.737C174.764 479.247 174.59 479.677 174.241 480.025C173.893 480.35 173.476 480.512 172.988 480.512ZM191.812 480.512C191.302 480.512 190.884 480.35 190.559 480.025C190.234 479.677 190.072 479.247 190.072 478.737V463.975C190.072 463.465 190.234 463.047 190.559 462.722C190.884 462.374 191.302 462.2 191.812 462.2C192.3 462.2 192.706 462.374 193.031 462.722C193.379 463.047 193.553 463.465 193.553 463.975V467.874L193.205 466.377C193.391 465.727 193.669 465.124 194.04 464.567C194.435 464.01 194.899 463.523 195.433 463.105C195.967 462.687 196.559 462.362 197.209 462.13C197.882 461.898 198.578 461.782 199.298 461.782C199.901 461.782 200.423 461.944 200.864 462.269C201.305 462.594 201.526 463 201.526 463.488C201.526 464.114 201.363 464.579 201.038 464.88C200.713 465.159 200.354 465.298 199.959 465.298C199.611 465.298 199.274 465.228 198.949 465.089C198.624 464.927 198.242 464.846 197.801 464.846C197.313 464.846 196.814 464.973 196.303 465.228C195.793 465.484 195.329 465.867 194.911 466.377C194.493 466.865 194.157 467.445 193.901 468.118C193.669 468.791 193.553 469.546 193.553 470.381V478.737C193.553 479.247 193.379 479.677 193.031 480.025C192.706 480.35 192.3 480.512 191.812 480.512ZM207.896 478.737C207.896 479.247 207.733 479.677 207.408 480.025C207.083 480.35 206.666 480.512 206.155 480.512C205.668 480.512 205.25 480.35 204.902 480.025C204.577 479.677 204.414 479.247 204.414 478.737V463.836C204.414 463.325 204.577 462.907 204.902 462.583C205.25 462.234 205.668 462.06 206.155 462.06C206.666 462.06 207.083 462.234 207.408 462.583C207.733 462.907 207.896 463.325 207.896 463.836V478.737ZM206.12 459.762C205.447 459.762 204.96 459.646 204.658 459.414C204.356 459.159 204.205 458.741 204.205 458.161V457.604C204.205 457.024 204.368 456.618 204.693 456.385C205.018 456.153 205.505 456.037 206.155 456.037C206.851 456.037 207.35 456.165 207.652 456.42C207.954 456.652 208.105 457.047 208.105 457.604V458.161C208.105 458.764 207.942 459.182 207.617 459.414C207.316 459.646 206.817 459.762 206.12 459.762ZM227.584 454.749C228.095 454.749 228.513 454.912 228.838 455.236C229.163 455.561 229.325 455.991 229.325 456.525V478.737C229.325 479.247 229.163 479.677 228.838 480.025C228.513 480.35 228.095 480.512 227.584 480.512C227.097 480.512 226.679 480.35 226.331 480.025C226.006 479.677 225.844 479.247 225.844 478.737V476.23L226.575 476.265C226.575 476.683 226.401 477.159 226.053 477.692C225.728 478.203 225.275 478.702 224.695 479.189C224.115 479.677 223.43 480.083 222.641 480.408C221.852 480.71 221.004 480.861 220.099 480.861C218.498 480.861 217.059 480.454 215.782 479.642C214.505 478.806 213.496 477.681 212.753 476.265C212.01 474.826 211.639 473.178 211.639 471.321C211.639 469.464 212.01 467.828 212.753 466.412C213.496 464.973 214.494 463.847 215.747 463.035C217.024 462.2 218.44 461.782 219.995 461.782C220.97 461.782 221.875 461.944 222.71 462.269C223.569 462.594 224.312 463.012 224.938 463.523C225.565 464.033 226.053 464.579 226.401 465.159C226.749 465.716 226.923 466.25 226.923 466.76L225.844 466.865V456.525C225.844 456.014 226.006 455.596 226.331 455.271C226.679 454.923 227.097 454.749 227.584 454.749ZM220.482 477.658C221.596 477.658 222.559 477.379 223.372 476.822C224.207 476.265 224.857 475.511 225.321 474.559C225.786 473.607 226.018 472.528 226.018 471.321C226.018 470.114 225.786 469.035 225.321 468.083C224.857 467.132 224.207 466.377 223.372 465.82C222.536 465.263 221.573 464.985 220.482 464.985C219.414 464.985 218.463 465.263 217.627 465.82C216.815 466.377 216.165 467.132 215.678 468.083C215.213 469.035 214.981 470.114 214.981 471.321C214.981 472.528 215.213 473.607 215.678 474.559C216.165 475.511 216.815 476.265 217.627 476.822C218.463 477.379 219.414 477.658 220.482 477.658ZM249.208 461.921C249.719 461.921 250.136 462.095 250.461 462.443C250.786 462.768 250.949 463.186 250.949 463.697V478.737C250.949 479.247 250.786 479.677 250.461 480.025C250.136 480.35 249.719 480.512 249.208 480.512C248.721 480.512 248.303 480.35 247.955 480.025C247.63 479.677 247.467 479.247 247.467 478.737V476.23L248.198 476.335C248.198 476.752 248.024 477.217 247.676 477.727C247.351 478.238 246.899 478.737 246.318 479.224C245.738 479.688 245.053 480.083 244.264 480.408C243.475 480.71 242.628 480.861 241.723 480.861C240.121 480.861 238.682 480.454 237.406 479.642C236.129 478.806 235.119 477.669 234.377 476.23C233.634 474.791 233.263 473.155 233.263 471.321C233.263 469.441 233.634 467.793 234.377 466.377C235.119 464.938 236.117 463.813 237.371 463C238.647 462.188 240.063 461.782 241.618 461.782C242.616 461.782 243.533 461.944 244.369 462.269C245.227 462.594 245.97 463.012 246.597 463.523C247.223 464.033 247.699 464.579 248.024 465.159C248.372 465.716 248.546 466.25 248.546 466.76L247.467 466.865V463.697C247.467 463.209 247.63 462.791 247.955 462.443C248.303 462.095 248.721 461.921 249.208 461.921ZM242.106 477.658C243.197 477.658 244.16 477.379 244.995 476.822C245.831 476.265 246.481 475.511 246.945 474.559C247.409 473.584 247.641 472.505 247.641 471.321C247.641 470.114 247.409 469.035 246.945 468.083C246.481 467.132 245.831 466.377 244.995 465.82C244.16 465.263 243.197 464.985 242.106 464.985C241.038 464.985 240.086 465.263 239.251 465.82C238.438 466.377 237.789 467.132 237.301 468.083C236.837 469.035 236.605 470.114 236.605 471.321C236.605 472.505 236.837 473.584 237.301 474.559C237.789 475.511 238.438 476.265 239.251 476.822C240.086 477.379 241.038 477.658 242.106 477.658ZM269.439 462.06C269.95 462.06 270.367 462.234 270.692 462.583C271.017 462.907 271.18 463.325 271.18 463.836V478.806C271.18 480.849 270.785 482.508 269.996 483.785C269.23 485.062 268.186 485.99 266.863 486.57C265.563 487.174 264.089 487.475 262.441 487.475C261.605 487.475 260.77 487.394 259.934 487.232C259.099 487.092 258.414 486.884 257.88 486.605C257.323 486.35 256.929 486.036 256.697 485.665C256.464 485.294 256.43 484.887 256.592 484.446C256.755 483.889 257.033 483.506 257.428 483.298C257.822 483.112 258.228 483.1 258.646 483.263C259.041 483.425 259.563 483.634 260.213 483.889C260.863 484.145 261.605 484.272 262.441 484.272C263.578 484.272 264.542 484.087 265.331 483.715C266.12 483.344 266.712 482.764 267.106 481.975C267.524 481.185 267.733 480.164 267.733 478.911V476.509L268.29 477.344C267.919 478.11 267.431 478.748 266.828 479.259C266.224 479.77 265.505 480.164 264.669 480.443C263.857 480.721 262.952 480.861 261.954 480.861C260.677 480.861 259.575 480.582 258.646 480.025C257.741 479.445 257.045 478.656 256.557 477.658C256.07 476.636 255.826 475.476 255.826 474.176V463.836C255.826 463.325 255.989 462.907 256.314 462.583C256.638 462.234 257.056 462.06 257.567 462.06C258.054 462.06 258.46 462.234 258.785 462.583C259.134 462.907 259.308 463.325 259.308 463.836V473.236C259.308 474.768 259.644 475.894 260.317 476.613C260.99 477.309 261.988 477.658 263.311 477.658C264.193 477.658 264.959 477.472 265.609 477.1C266.259 476.729 266.77 476.218 267.141 475.569C267.512 474.896 267.698 474.118 267.698 473.236V463.836C267.698 463.325 267.861 462.907 268.186 462.583C268.534 462.234 268.951 462.06 269.439 462.06ZM274.636 477.658C274.428 477.333 274.335 476.961 274.358 476.543C274.381 476.102 274.625 475.731 275.089 475.429C275.414 475.22 275.751 475.139 276.099 475.186C276.47 475.209 276.818 475.383 277.143 475.708C277.793 476.427 278.513 476.996 279.302 477.414C280.114 477.832 281.089 478.04 282.226 478.04C282.69 478.017 283.166 477.948 283.654 477.832C284.141 477.692 284.559 477.46 284.907 477.135C285.255 476.787 285.429 476.288 285.429 475.638C285.429 475.058 285.243 474.594 284.872 474.246C284.501 473.897 284.013 473.619 283.41 473.41C282.806 473.178 282.157 472.969 281.46 472.783C280.717 472.574 279.963 472.342 279.197 472.087C278.454 471.832 277.781 471.507 277.178 471.112C276.574 470.694 276.075 470.161 275.681 469.511C275.31 468.861 275.124 468.06 275.124 467.108C275.124 466.018 275.426 465.078 276.029 464.288C276.656 463.499 277.456 462.884 278.431 462.443C279.429 462.002 280.509 461.782 281.669 461.782C282.342 461.782 283.05 461.875 283.793 462.06C284.536 462.223 285.255 462.49 285.951 462.861C286.648 463.232 287.251 463.72 287.762 464.323C287.994 464.625 288.122 464.985 288.145 465.403C288.191 465.82 288.005 466.192 287.588 466.517C287.309 466.749 286.973 466.853 286.578 466.83C286.183 466.807 285.859 466.679 285.603 466.447C285.162 465.89 284.594 465.461 283.897 465.159C283.201 464.834 282.412 464.671 281.53 464.671C281.089 464.671 280.625 464.741 280.137 464.88C279.673 464.996 279.278 465.217 278.954 465.542C278.629 465.867 278.466 466.343 278.466 466.969C278.466 467.549 278.652 468.014 279.023 468.362C279.418 468.71 279.928 469 280.555 469.232C281.182 469.464 281.866 469.673 282.609 469.859C283.329 470.045 284.037 470.265 284.733 470.52C285.452 470.776 286.091 471.112 286.648 471.53C287.228 471.925 287.692 472.447 288.04 473.097C288.412 473.723 288.597 474.524 288.597 475.499C288.597 476.636 288.261 477.611 287.588 478.423C286.938 479.213 286.102 479.816 285.081 480.234C284.083 480.652 283.027 480.861 281.913 480.861C280.59 480.861 279.267 480.628 277.944 480.164C276.644 479.677 275.542 478.841 274.636 477.658ZM317.037 461.921C317.547 461.921 317.965 462.095 318.29 462.443C318.615 462.768 318.777 463.186 318.777 463.697V478.737C318.777 479.247 318.615 479.677 318.29 480.025C317.965 480.35 317.547 480.512 317.037 480.512C316.549 480.512 316.131 480.35 315.783 480.025C315.458 479.677 315.296 479.247 315.296 478.737V476.23L316.027 476.335C316.027 476.752 315.853 477.217 315.505 477.727C315.18 478.238 314.727 478.737 314.147 479.224C313.567 479.688 312.882 480.083 312.093 480.408C311.304 480.71 310.456 480.861 309.551 480.861C307.95 480.861 306.511 480.454 305.234 479.642C303.958 478.806 302.948 477.669 302.205 476.23C301.462 474.791 301.091 473.155 301.091 471.321C301.091 469.441 301.462 467.793 302.205 466.377C302.948 464.938 303.946 463.813 305.199 463C306.476 462.188 307.892 461.782 309.447 461.782C310.445 461.782 311.362 461.944 312.197 462.269C313.056 462.594 313.799 463.012 314.425 463.523C315.052 464.033 315.528 464.579 315.853 465.159C316.201 465.716 316.375 466.25 316.375 466.76L315.296 466.865V463.697C315.296 463.209 315.458 462.791 315.783 462.443C316.131 462.095 316.549 461.921 317.037 461.921ZM309.934 477.658C311.025 477.658 311.988 477.379 312.824 476.822C313.659 476.265 314.309 475.511 314.774 474.559C315.238 473.584 315.47 472.505 315.47 471.321C315.47 470.114 315.238 469.035 314.774 468.083C314.309 467.132 313.659 466.377 312.824 465.82C311.988 465.263 311.025 464.985 309.934 464.985C308.867 464.985 307.915 465.263 307.079 465.82C306.267 466.377 305.617 467.132 305.13 468.083C304.665 469.035 304.433 470.114 304.433 471.321C304.433 472.505 304.665 473.584 305.13 474.559C305.617 475.511 306.267 476.265 307.079 476.822C307.915 477.379 308.867 477.658 309.934 477.658ZM323.411 462.408H331.593C332.057 462.408 332.44 462.571 332.741 462.896C333.066 463.198 333.229 463.581 333.229 464.045C333.229 464.486 333.066 464.857 332.741 465.159C332.44 465.461 332.057 465.611 331.593 465.611H323.411C322.947 465.611 322.552 465.461 322.227 465.159C321.926 464.834 321.775 464.451 321.775 464.01C321.775 463.546 321.926 463.163 322.227 462.861C322.552 462.559 322.947 462.408 323.411 462.408ZM327.067 457.882C327.577 457.882 327.995 458.057 328.32 458.405C328.645 458.73 328.807 459.147 328.807 459.658V475.812C328.807 476.23 328.877 476.567 329.016 476.822C329.155 477.077 329.341 477.251 329.573 477.344C329.829 477.437 330.084 477.483 330.339 477.483C330.595 477.483 330.815 477.437 331.001 477.344C331.21 477.251 331.453 477.205 331.732 477.205C332.01 477.205 332.266 477.333 332.498 477.588C332.73 477.843 332.846 478.191 332.846 478.632C332.846 479.189 332.544 479.642 331.941 479.99C331.337 480.338 330.687 480.512 329.991 480.512C329.596 480.512 329.132 480.478 328.598 480.408C328.065 480.338 327.542 480.164 327.032 479.886C326.544 479.607 326.138 479.166 325.813 478.563C325.488 477.936 325.326 477.066 325.326 475.952V459.658C325.326 459.147 325.488 458.73 325.813 458.405C326.161 458.057 326.579 457.882 327.067 457.882ZM365.435 456.142C365.899 456.142 366.271 456.304 366.549 456.629C366.851 456.931 367.002 457.314 367.002 457.778V478.737C367.002 479.247 366.828 479.677 366.48 480.025C366.155 480.35 365.737 480.512 365.226 480.512C364.994 480.512 364.739 480.466 364.46 480.373C364.205 480.28 364.008 480.153 363.868 479.99L349.559 461.434L350.36 460.981V478.911C350.36 479.352 350.209 479.735 349.908 480.06C349.606 480.362 349.223 480.512 348.759 480.512C348.271 480.512 347.877 480.362 347.575 480.06C347.296 479.735 347.157 479.352 347.157 478.911V457.917C347.157 457.383 347.331 456.954 347.679 456.629C348.028 456.304 348.445 456.142 348.933 456.142C349.188 456.142 349.455 456.2 349.733 456.316C350.035 456.409 350.256 456.559 350.395 456.768L364.356 474.942L363.834 475.429V457.778C363.834 457.314 363.985 456.931 364.286 456.629C364.588 456.304 364.971 456.142 365.435 456.142ZM375.58 478.737C375.58 479.247 375.418 479.677 375.093 480.025C374.768 480.35 374.35 480.512 373.839 480.512C373.352 480.512 372.934 480.35 372.586 480.025C372.261 479.677 372.099 479.247 372.099 478.737V463.836C372.099 463.325 372.261 462.907 372.586 462.583C372.934 462.234 373.352 462.06 373.839 462.06C374.35 462.06 374.768 462.234 375.093 462.583C375.418 462.907 375.58 463.325 375.58 463.836V478.737ZM373.805 459.762C373.132 459.762 372.644 459.646 372.342 459.414C372.041 459.159 371.89 458.741 371.89 458.161V457.604C371.89 457.024 372.052 456.618 372.377 456.385C372.702 456.153 373.19 456.037 373.839 456.037C374.536 456.037 375.035 456.165 375.337 456.42C375.638 456.652 375.789 457.047 375.789 457.604V458.161C375.789 458.764 375.627 459.182 375.302 459.414C375 459.646 374.501 459.762 373.805 459.762ZM382.283 480.512C381.795 480.512 381.378 480.35 381.029 480.025C380.704 479.677 380.542 479.247 380.542 478.737V456.525C380.542 456.014 380.704 455.596 381.029 455.271C381.378 454.923 381.795 454.749 382.283 454.749C382.793 454.749 383.211 454.923 383.536 455.271C383.861 455.596 384.024 456.014 384.024 456.525V478.737C384.024 479.247 383.861 479.677 383.536 480.025C383.211 480.35 382.793 480.512 382.283 480.512ZM393.633 462.13C394.074 462.13 394.456 462.316 394.781 462.687C395.106 463.058 395.269 463.43 395.269 463.801C395.269 464.265 395.048 464.695 394.607 465.089L383.71 474.837L383.571 470.834L392.344 462.687C392.716 462.316 393.145 462.13 393.633 462.13ZM394.05 480.478C393.563 480.478 393.145 480.28 392.797 479.886L385.834 472.54L388.48 470.103L395.269 477.449C395.64 477.843 395.826 478.284 395.826 478.772C395.826 479.282 395.617 479.7 395.199 480.025C394.805 480.327 394.422 480.478 394.05 480.478ZM398.428 477.658C398.219 477.333 398.126 476.961 398.149 476.543C398.172 476.102 398.416 475.731 398.88 475.429C399.205 475.22 399.542 475.139 399.89 475.186C400.261 475.209 400.61 475.383 400.934 475.708C401.584 476.427 402.304 476.996 403.093 477.414C403.905 477.832 404.88 478.04 406.017 478.04C406.482 478.017 406.958 477.948 407.445 477.832C407.932 477.692 408.35 477.46 408.698 477.135C409.046 476.787 409.221 476.288 409.221 475.638C409.221 475.058 409.035 474.594 408.663 474.246C408.292 473.897 407.805 473.619 407.201 473.41C406.598 473.178 405.948 472.969 405.252 472.783C404.509 472.574 403.755 472.342 402.989 472.087C402.246 471.832 401.573 471.507 400.969 471.112C400.366 470.694 399.867 470.161 399.472 469.511C399.101 468.861 398.915 468.06 398.915 467.108C398.915 466.018 399.217 465.078 399.82 464.288C400.447 463.499 401.248 462.884 402.223 462.443C403.221 462.002 404.3 461.782 405.46 461.782C406.134 461.782 406.841 461.875 407.584 462.06C408.327 462.223 409.046 462.49 409.743 462.861C410.439 463.232 411.042 463.72 411.553 464.323C411.785 464.625 411.913 464.985 411.936 465.403C411.983 465.82 411.797 466.192 411.379 466.517C411.101 466.749 410.764 466.853 410.369 466.83C409.975 466.807 409.65 466.679 409.395 466.447C408.954 465.89 408.385 465.461 407.689 465.159C406.992 464.834 406.203 464.671 405.321 464.671C404.88 464.671 404.416 464.741 403.929 464.88C403.464 464.996 403.07 465.217 402.745 465.542C402.42 465.867 402.257 466.343 402.257 466.969C402.257 467.549 402.443 468.014 402.814 468.362C403.209 468.71 403.72 469 404.346 469.232C404.973 469.464 405.658 469.673 406.4 469.859C407.12 470.045 407.828 470.265 408.524 470.52C409.244 470.776 409.882 471.112 410.439 471.53C411.019 471.925 411.483 472.447 411.832 473.097C412.203 473.723 412.389 474.524 412.389 475.499C412.389 476.636 412.052 477.611 411.379 478.423C410.729 479.213 409.894 479.816 408.872 480.234C407.874 480.652 406.818 480.861 405.704 480.861C404.381 480.861 403.058 480.628 401.735 480.164C400.435 479.677 399.333 478.841 398.428 477.658Z" fill="white"/>
<rect x="126.096" y="423.288" width="614.517" height="87.7882" rx="43.8941" stroke="#D1A227" stroke-width="1.11124"/>
<path d="M801.211 456.139H795.133V454.923C795.133 453.956 794.749 453.029 794.065 452.345C793.382 451.661 792.454 451.277 791.487 451.277H784.195C783.228 451.277 782.3 451.661 781.616 452.345C780.933 453.029 780.548 453.956 780.548 454.923V456.139H774.471C774.149 456.139 773.84 456.267 773.612 456.495C773.384 456.723 773.256 457.032 773.256 457.354C773.256 457.676 773.384 457.986 773.612 458.213C773.84 458.441 774.149 458.569 774.471 458.569H775.687V480.447C775.687 481.092 775.943 481.71 776.399 482.166C776.855 482.622 777.473 482.878 778.118 482.878H797.564C798.209 482.878 798.827 482.622 799.283 482.166C799.739 481.71 799.995 481.092 799.995 480.447V458.569H801.211C801.533 458.569 801.842 458.441 802.07 458.213C802.298 457.986 802.426 457.676 802.426 457.354C802.426 457.032 802.298 456.723 802.07 456.495C801.842 456.267 801.533 456.139 801.211 456.139ZM782.979 454.923C782.979 454.601 783.107 454.292 783.335 454.064C783.563 453.836 783.872 453.708 784.195 453.708H791.487C791.81 453.708 792.119 453.836 792.347 454.064C792.575 454.292 792.703 454.601 792.703 454.923V456.139H782.979V454.923ZM797.564 480.447H778.118V458.569H797.564V480.447ZM785.41 464.647V474.37C785.41 474.692 785.282 475.001 785.054 475.229C784.826 475.457 784.517 475.585 784.195 475.585C783.872 475.585 783.563 475.457 783.335 475.229C783.107 475.001 782.979 474.692 782.979 474.37V464.647C782.979 464.324 783.107 464.015 783.335 463.787C783.563 463.559 783.872 463.431 784.195 463.431C784.517 463.431 784.826 463.559 785.054 463.787C785.282 464.015 785.41 464.324 785.41 464.647ZM792.703 464.647V474.37C792.703 474.692 792.575 475.001 792.347 475.229C792.119 475.457 791.81 475.585 791.487 475.585C791.165 475.585 790.856 475.457 790.628 475.229C790.4 475.001 790.272 474.692 790.272 474.37V464.647C790.272 464.324 790.4 464.015 790.628 463.787C790.856 463.559 791.165 463.431 791.487 463.431C791.81 463.431 792.119 463.559 792.347 463.787C792.575 464.015 792.703 464.324 792.703 464.647Z" fill="white"/>
<rect x="141.692" y="558.182" width="650.98" height="129" rx="37.1165" fill="#15120B"/>
<path d="M217.705 612.552C218.778 612.552 219.769 612.846 220.679 613.432C221.59 613.999 222.318 614.778 222.864 615.769C223.41 616.76 223.684 617.873 223.684 619.107C223.684 620.341 223.41 621.464 222.864 622.475C222.318 623.467 221.59 624.266 220.679 624.873C219.769 625.459 218.778 625.753 217.705 625.753H211.849L212.091 625.267V632.247C212.091 632.692 211.95 633.066 211.667 633.369C211.404 633.653 211.05 633.794 210.605 633.794C210.18 633.794 209.826 633.653 209.542 633.369C209.279 633.066 209.148 632.692 209.148 632.247V614.1C209.148 613.655 209.3 613.291 209.603 613.007C209.907 612.704 210.271 612.552 210.696 612.552H217.705ZM217.705 622.839C218.231 622.839 218.707 622.667 219.132 622.324C219.577 621.98 219.931 621.524 220.194 620.958C220.477 620.392 220.619 619.774 220.619 619.107C220.619 618.439 220.477 617.832 220.194 617.286C219.931 616.74 219.577 616.305 219.132 615.981C218.707 615.637 218.231 615.465 217.705 615.465H211.788L212.091 615.01V623.234L211.818 622.839H217.705ZM230.317 632.247C230.317 632.692 230.165 633.066 229.862 633.369C229.578 633.653 229.224 633.794 228.799 633.794C228.375 633.794 228.01 633.653 227.707 633.369C227.424 633.066 227.282 632.692 227.282 632.247V612.886C227.282 612.441 227.434 612.077 227.737 611.794C228.041 611.49 228.405 611.338 228.83 611.338C229.275 611.338 229.629 611.49 229.892 611.794C230.175 612.077 230.317 612.441 230.317 612.886V632.247ZM247.912 617.59C248.357 617.59 248.721 617.741 249.005 618.045C249.288 618.328 249.43 618.692 249.43 619.137V632.247C249.43 632.692 249.288 633.066 249.005 633.369C248.721 633.653 248.357 633.794 247.912 633.794C247.487 633.794 247.123 633.653 246.82 633.369C246.537 633.066 246.395 632.692 246.395 632.247V630.062L247.032 630.153C247.032 630.517 246.88 630.921 246.577 631.367C246.294 631.812 245.899 632.247 245.394 632.671C244.888 633.076 244.291 633.42 243.603 633.703C242.915 633.966 242.177 634.098 241.388 634.098C239.992 634.098 238.738 633.744 237.625 633.036C236.512 632.307 235.632 631.316 234.985 630.062C234.338 628.807 234.014 627.381 234.014 625.783C234.014 624.144 234.338 622.708 234.985 621.474C235.632 620.22 236.502 619.238 237.595 618.53C238.707 617.822 239.941 617.468 241.297 617.468C242.167 617.468 242.966 617.61 243.694 617.893C244.443 618.176 245.09 618.54 245.636 618.985C246.183 619.431 246.597 619.906 246.88 620.412C247.184 620.897 247.336 621.363 247.336 621.808L246.395 621.899V619.137C246.395 618.712 246.537 618.348 246.82 618.045C247.123 617.741 247.487 617.59 247.912 617.59ZM241.722 631.306C242.673 631.306 243.512 631.063 244.24 630.578C244.969 630.092 245.535 629.435 245.94 628.605C246.344 627.755 246.547 626.815 246.547 625.783C246.547 624.731 246.344 623.79 245.94 622.961C245.535 622.131 244.969 621.474 244.24 620.988C243.512 620.503 242.673 620.26 241.722 620.26C240.791 620.26 239.962 620.503 239.233 620.988C238.525 621.474 237.959 622.131 237.534 622.961C237.129 623.79 236.927 624.731 236.927 625.783C236.927 626.815 237.129 627.755 237.534 628.605C237.959 629.435 238.525 630.092 239.233 630.578C239.962 631.063 240.791 631.306 241.722 631.306ZM265.546 617.711C265.991 617.711 266.355 617.863 266.638 618.166C266.922 618.449 267.063 618.814 267.063 619.259V632.307C267.063 634.088 266.719 635.534 266.032 636.647C265.364 637.759 264.454 638.569 263.3 639.074C262.167 639.6 260.883 639.863 259.446 639.863C258.718 639.863 257.99 639.793 257.262 639.651C256.533 639.53 255.936 639.347 255.471 639.105C254.986 638.882 254.642 638.609 254.439 638.285C254.237 637.962 254.207 637.608 254.348 637.223C254.49 636.738 254.733 636.404 255.077 636.222C255.421 636.06 255.775 636.05 256.139 636.192C256.483 636.333 256.938 636.515 257.504 636.738C258.071 636.96 258.718 637.072 259.446 637.072C260.438 637.072 261.277 636.91 261.965 636.586C262.653 636.262 263.169 635.757 263.513 635.069C263.877 634.381 264.059 633.491 264.059 632.398V630.304L264.545 631.033C264.221 631.7 263.796 632.257 263.27 632.702C262.744 633.147 262.117 633.491 261.389 633.734C260.681 633.976 259.892 634.098 259.022 634.098C257.909 634.098 256.948 633.855 256.139 633.369C255.35 632.864 254.743 632.176 254.318 631.306C253.893 630.416 253.681 629.404 253.681 628.271V619.259C253.681 618.814 253.822 618.449 254.106 618.166C254.389 617.863 254.753 617.711 255.198 617.711C255.623 617.711 255.977 617.863 256.26 618.166C256.564 618.449 256.715 618.814 256.715 619.259V627.452C256.715 628.787 257.009 629.768 257.595 630.395C258.182 631.002 259.052 631.306 260.205 631.306C260.974 631.306 261.641 631.144 262.208 630.82C262.774 630.497 263.219 630.052 263.543 629.485C263.867 628.898 264.029 628.221 264.029 627.452V619.259C264.029 618.814 264.17 618.449 264.454 618.166C264.757 617.863 265.121 617.711 265.546 617.711ZM288.65 612.552C289.723 612.552 290.714 612.846 291.624 613.432C292.535 613.999 293.263 614.778 293.809 615.769C294.355 616.76 294.629 617.873 294.629 619.107C294.629 620.341 294.355 621.464 293.809 622.475C293.263 623.467 292.535 624.266 291.624 624.873C290.714 625.459 289.723 625.753 288.65 625.753H282.794L283.036 625.267V632.247C283.036 632.692 282.895 633.066 282.612 633.369C282.349 633.653 281.995 633.794 281.55 633.794C281.125 633.794 280.771 633.653 280.487 633.369C280.224 633.066 280.093 632.692 280.093 632.247V614.1C280.093 613.655 280.245 613.291 280.548 613.007C280.852 612.704 281.216 612.552 281.641 612.552H288.65ZM288.65 622.839C289.176 622.839 289.652 622.667 290.077 622.324C290.522 621.98 290.876 621.524 291.139 620.958C291.422 620.392 291.564 619.774 291.564 619.107C291.564 618.439 291.422 617.832 291.139 617.286C290.876 616.74 290.522 616.305 290.077 615.981C289.652 615.637 289.176 615.465 288.65 615.465H282.733L283.036 615.01V623.234L282.763 622.839H288.65ZM312.982 625.813C312.982 627.432 312.628 628.868 311.92 630.122C311.212 631.356 310.251 632.328 309.037 633.036C307.824 633.744 306.458 634.098 304.941 634.098C303.423 634.098 302.058 633.744 300.844 633.036C299.63 632.328 298.659 631.356 297.931 630.122C297.223 628.868 296.869 627.432 296.869 625.813C296.869 624.175 297.223 622.738 297.931 621.504C298.659 620.25 299.63 619.269 300.844 618.561C302.058 617.832 303.423 617.468 304.941 617.468C306.458 617.468 307.824 617.832 309.037 618.561C310.251 619.269 311.212 620.25 311.92 621.504C312.628 622.738 312.982 624.175 312.982 625.813ZM309.948 625.813C309.948 624.701 309.725 623.74 309.28 622.93C308.835 622.101 308.228 621.454 307.459 620.988C306.711 620.503 305.871 620.26 304.941 620.26C304.01 620.26 303.16 620.503 302.392 620.988C301.623 621.454 301.016 622.101 300.571 622.93C300.126 623.74 299.903 624.701 299.903 625.813C299.903 626.886 300.126 627.836 300.571 628.666C301.016 629.495 301.623 630.143 302.392 630.608C303.16 631.073 304.01 631.306 304.941 631.306C305.871 631.306 306.711 631.073 307.459 630.608C308.228 630.143 308.835 629.495 309.28 628.666C309.725 627.836 309.948 626.886 309.948 625.813ZM318.177 633.794C317.752 633.794 317.388 633.653 317.085 633.369C316.801 633.066 316.66 632.692 316.66 632.247V612.886C316.66 612.441 316.801 612.077 317.085 611.794C317.388 611.49 317.752 611.338 318.177 611.338C318.622 611.338 318.986 611.49 319.27 611.794C319.553 612.077 319.694 612.441 319.694 612.886V632.247C319.694 632.692 319.553 633.066 319.27 633.369C318.986 633.653 318.622 633.794 318.177 633.794ZM328.07 617.772C328.454 617.772 328.788 617.934 329.071 618.257C329.354 618.581 329.496 618.905 329.496 619.228C329.496 619.633 329.304 620.007 328.919 620.351L319.421 628.848L319.3 625.358L326.947 618.257C327.271 617.934 327.645 617.772 328.07 617.772ZM328.434 633.764C328.009 633.764 327.645 633.592 327.342 633.248L321.272 626.845L323.579 624.721L329.496 631.124C329.82 631.468 329.982 631.852 329.982 632.277C329.982 632.722 329.8 633.086 329.435 633.369C329.091 633.632 328.758 633.764 328.434 633.764ZM346.299 617.59C346.744 617.59 347.108 617.741 347.391 618.045C347.674 618.328 347.816 618.692 347.816 619.137V632.247C347.816 632.692 347.674 633.066 347.391 633.369C347.108 633.653 346.744 633.794 346.299 633.794C345.874 633.794 345.51 633.653 345.206 633.369C344.923 633.066 344.782 632.692 344.782 632.247V630.062L345.419 630.153C345.419 630.517 345.267 630.921 344.964 631.367C344.68 631.812 344.286 632.247 343.78 632.671C343.274 633.076 342.678 633.42 341.99 633.703C341.302 633.966 340.563 634.098 339.774 634.098C338.379 634.098 337.124 633.744 336.012 633.036C334.899 632.307 334.019 631.316 333.372 630.062C332.724 628.807 332.4 627.381 332.4 625.783C332.4 624.144 332.724 622.708 333.372 621.474C334.019 620.22 334.889 619.238 335.981 618.53C337.094 617.822 338.328 617.468 339.683 617.468C340.553 617.468 341.352 617.61 342.081 617.893C342.829 618.176 343.477 618.54 344.023 618.985C344.569 619.431 344.984 619.906 345.267 620.412C345.571 620.897 345.722 621.363 345.722 621.808L344.782 621.899V619.137C344.782 618.712 344.923 618.348 345.206 618.045C345.51 617.741 345.874 617.59 346.299 617.59ZM340.108 631.306C341.059 631.306 341.899 631.063 342.627 630.578C343.355 630.092 343.922 629.435 344.326 628.605C344.731 627.755 344.933 626.815 344.933 625.783C344.933 624.731 344.731 623.79 344.326 622.961C343.922 622.131 343.355 621.474 342.627 620.988C341.899 620.503 341.059 620.26 340.108 620.26C339.178 620.26 338.348 620.503 337.62 620.988C336.912 621.474 336.345 622.131 335.921 622.961C335.516 623.79 335.314 624.731 335.314 625.783C335.314 626.815 335.516 627.755 335.921 628.605C336.345 629.435 336.912 630.092 337.62 630.578C338.348 631.063 339.178 631.306 340.108 631.306ZM365.443 617.59C365.888 617.59 366.252 617.741 366.535 618.045C366.818 618.328 366.96 618.692 366.96 619.137V632.247C366.96 632.692 366.818 633.066 366.535 633.369C366.252 633.653 365.888 633.794 365.443 633.794C365.018 633.794 364.654 633.653 364.35 633.369C364.067 633.066 363.925 632.692 363.925 632.247V630.062L364.563 630.153C364.563 630.517 364.411 630.921 364.107 631.367C363.824 631.812 363.43 632.247 362.924 632.671C362.418 633.076 361.821 633.42 361.134 633.703C360.446 633.966 359.707 634.098 358.918 634.098C357.522 634.098 356.268 633.744 355.155 633.036C354.043 632.307 353.163 631.316 352.515 630.062C351.868 628.807 351.544 627.381 351.544 625.783C351.544 624.144 351.868 622.708 352.515 621.474C353.163 620.22 354.033 619.238 355.125 618.53C356.238 617.822 357.472 617.468 358.827 617.468C359.697 617.468 360.496 617.61 361.225 617.893C361.973 618.176 362.621 618.54 363.167 618.985C363.713 619.431 364.128 619.906 364.411 620.412C364.714 620.897 364.866 621.363 364.866 621.808L363.925 621.899V619.137C363.925 618.712 364.067 618.348 364.35 618.045C364.654 617.741 365.018 617.59 365.443 617.59ZM359.252 631.306C360.203 631.306 361.043 631.063 361.771 630.578C362.499 630.092 363.066 629.435 363.47 628.605C363.875 627.755 364.077 626.815 364.077 625.783C364.077 624.731 363.875 623.79 363.47 622.961C363.066 622.131 362.499 621.474 361.771 620.988C361.043 620.503 360.203 620.26 359.252 620.26C358.322 620.26 357.492 620.503 356.764 620.988C356.056 621.474 355.489 622.131 355.064 622.961C354.66 623.79 354.458 624.731 354.458 625.783C354.458 626.815 354.66 627.755 355.064 628.605C355.489 629.435 356.056 630.092 356.764 630.578C357.492 631.063 358.322 631.306 359.252 631.306ZM379.253 617.559C380.649 617.559 381.731 617.863 382.5 618.47C383.269 619.056 383.805 619.855 384.108 620.867C384.432 621.878 384.594 622.991 384.594 624.205V632.247C384.594 632.692 384.442 633.066 384.139 633.369C383.855 633.653 383.501 633.794 383.076 633.794C382.631 633.794 382.267 633.653 381.984 633.369C381.701 633.066 381.559 632.692 381.559 632.247V624.205C381.559 623.497 381.458 622.85 381.256 622.263C381.074 621.676 380.74 621.211 380.254 620.867C379.789 620.523 379.131 620.351 378.282 620.351C377.493 620.351 376.785 620.523 376.158 620.867C375.551 621.211 375.075 621.676 374.731 622.263C374.408 622.85 374.246 623.497 374.246 624.205V632.247C374.246 632.692 374.094 633.066 373.791 633.369C373.507 633.653 373.153 633.794 372.729 633.794C372.283 633.794 371.919 633.653 371.636 633.369C371.353 633.066 371.211 632.692 371.211 632.247V612.886C371.211 612.441 371.353 612.077 371.636 611.794C371.919 611.49 372.283 611.338 372.729 611.338C373.153 611.338 373.507 611.49 373.791 611.794C374.094 612.077 374.246 612.441 374.246 612.886V621.17L373.7 621.474C373.841 621.029 374.074 620.574 374.398 620.108C374.741 619.643 375.156 619.218 375.642 618.834C376.147 618.449 376.704 618.146 377.311 617.923C377.918 617.681 378.565 617.559 379.253 617.559Z" fill="white"/>
<rect x="169.884" y="584.423" width="535.627" height="76.5181" rx="38.2591" stroke="#D1A227" stroke-width="0.968584"/>
<path d="M758.328 613.056H753.031V611.997C753.031 611.154 752.696 610.346 752.1 609.75C751.504 609.154 750.696 608.819 749.853 608.819H743.497C742.654 608.819 741.846 609.154 741.25 609.75C740.654 610.346 740.319 611.154 740.319 611.997V613.056H735.022C734.741 613.056 734.471 613.168 734.273 613.367C734.074 613.565 733.962 613.835 733.962 614.116C733.962 614.397 734.074 614.666 734.273 614.865C734.471 615.063 734.741 615.175 735.022 615.175H736.081V634.244C736.081 634.806 736.304 635.345 736.702 635.742C737.099 636.14 737.638 636.363 738.2 636.363H755.15C755.712 636.363 756.251 636.14 756.648 635.742C757.046 635.345 757.269 634.806 757.269 634.244V615.175H758.328C758.609 615.175 758.879 615.063 759.077 614.865C759.276 614.666 759.388 614.397 759.388 614.116C759.388 613.835 759.276 613.565 759.077 613.367C758.879 613.168 758.609 613.056 758.328 613.056ZM742.437 611.997C742.437 611.716 742.549 611.446 742.748 611.248C742.946 611.049 743.216 610.938 743.497 610.938H749.853C750.134 610.938 750.404 611.049 750.602 611.248C750.801 611.446 750.913 611.716 750.913 611.997V613.056H742.437V611.997ZM755.15 634.244H738.2V615.175H755.15V634.244ZM744.556 620.472V628.947C744.556 629.228 744.445 629.498 744.246 629.696C744.047 629.895 743.778 630.007 743.497 630.007C743.216 630.007 742.946 629.895 742.748 629.696C742.549 629.498 742.437 629.228 742.437 628.947V620.472C742.437 620.191 742.549 619.922 742.748 619.723C742.946 619.524 743.216 619.413 743.497 619.413C743.778 619.413 744.047 619.524 744.246 619.723C744.445 619.922 744.556 620.191 744.556 620.472ZM750.913 620.472V628.947C750.913 629.228 750.801 629.498 750.602 629.696C750.404 629.895 750.134 630.007 749.853 630.007C749.572 630.007 749.303 629.895 749.104 629.696C748.905 629.498 748.794 629.228 748.794 628.947V620.472C748.794 620.191 748.905 619.922 749.104 619.723C749.303 619.524 749.572 619.413 749.853 619.413C750.134 619.413 750.404 619.524 750.602 619.723C750.801 619.922 750.913 620.191 750.913 620.472Z" fill="white"/>
<rect x="142.182" y="704.182" width="650.98" height="129" rx="37.1165" fill="#15120B"/>
<path d="M216.162 780.098C214.706 780.098 213.411 779.895 212.278 779.491C211.145 779.086 210.063 778.419 209.031 777.488C208.808 777.326 208.637 777.134 208.515 776.911C208.414 776.669 208.363 776.426 208.363 776.183C208.363 775.799 208.505 775.455 208.788 775.151C209.071 774.848 209.426 774.696 209.85 774.696C210.174 774.696 210.478 774.807 210.761 775.03C211.529 775.738 212.329 776.274 213.158 776.638C214.008 777.002 214.999 777.185 216.132 777.185C216.941 777.185 217.68 777.053 218.347 776.79C219.035 776.527 219.581 776.173 219.986 775.728C220.39 775.283 220.593 774.767 220.593 774.18C220.593 773.452 220.38 772.855 219.955 772.39C219.551 771.904 218.954 771.51 218.165 771.206C217.396 770.883 216.466 770.61 215.373 770.387C214.362 770.205 213.451 769.952 212.642 769.628C211.853 769.305 211.175 768.9 210.609 768.415C210.043 767.909 209.608 767.312 209.304 766.624C209.001 765.936 208.849 765.137 208.849 764.227C208.849 762.993 209.173 761.931 209.82 761.041C210.467 760.15 211.347 759.463 212.46 758.977C213.573 758.492 214.827 758.249 216.223 758.249C217.497 758.249 218.691 758.451 219.804 758.856C220.916 759.24 221.817 759.766 222.505 760.434C222.99 760.859 223.233 761.314 223.233 761.799C223.233 762.163 223.081 762.507 222.778 762.831C222.494 763.134 222.161 763.286 221.776 763.286C221.493 763.286 221.25 763.205 221.048 763.043C220.724 762.699 220.289 762.396 219.743 762.133C219.197 761.85 218.61 761.617 217.983 761.435C217.376 761.253 216.789 761.162 216.223 761.162C215.313 761.162 214.534 761.293 213.886 761.556C213.239 761.799 212.743 762.143 212.399 762.588C212.055 763.013 211.884 763.519 211.884 764.106C211.884 764.793 212.076 765.36 212.46 765.805C212.865 766.25 213.421 766.614 214.129 766.897C214.837 767.16 215.646 767.403 216.557 767.626C217.669 767.868 218.661 768.141 219.531 768.445C220.421 768.748 221.169 769.143 221.776 769.628C222.383 770.094 222.848 770.68 223.172 771.388C223.496 772.097 223.658 772.977 223.658 774.029C223.658 775.242 223.314 776.304 222.626 777.215C221.938 778.125 221.028 778.833 219.895 779.339C218.782 779.845 217.538 780.098 216.162 780.098ZM238.951 763.832C239.376 763.832 239.73 763.984 240.013 764.288C240.316 764.571 240.468 764.935 240.468 765.38V773.361C240.468 775.465 239.881 777.114 238.708 778.307C237.535 779.481 235.876 780.067 233.731 780.067C231.607 780.067 229.958 779.481 228.785 778.307C227.632 777.114 227.055 775.465 227.055 773.361V765.38C227.055 764.935 227.197 764.571 227.48 764.288C227.763 763.984 228.127 763.832 228.572 763.832C228.997 763.832 229.351 763.984 229.635 764.288C229.938 764.571 230.09 764.935 230.09 765.38V773.361C230.09 774.676 230.393 775.657 231 776.304C231.627 776.952 232.538 777.276 233.731 777.276C234.945 777.276 235.866 776.952 236.493 776.304C237.12 775.657 237.433 774.676 237.433 773.361V765.38C237.433 764.935 237.575 764.571 237.858 764.288C238.142 763.984 238.506 763.832 238.951 763.832ZM252.911 763.468C254.348 763.468 255.46 763.772 256.249 764.379C257.038 764.965 257.585 765.764 257.888 766.776C258.212 767.767 258.374 768.88 258.374 770.114V778.247C258.374 778.692 258.222 779.066 257.918 779.369C257.635 779.653 257.281 779.794 256.856 779.794C256.411 779.794 256.047 779.653 255.764 779.369C255.481 779.066 255.339 778.692 255.339 778.247V770.144C255.339 769.416 255.238 768.769 255.036 768.202C254.833 767.615 254.479 767.15 253.974 766.806C253.488 766.442 252.8 766.26 251.91 766.26C251.081 766.26 250.352 766.442 249.725 766.806C249.098 767.15 248.602 767.615 248.238 768.202C247.894 768.769 247.722 769.416 247.722 770.144V778.247C247.722 778.692 247.571 779.066 247.267 779.369C246.984 779.653 246.63 779.794 246.205 779.794C245.76 779.794 245.396 779.653 245.113 779.369C244.829 779.066 244.688 778.692 244.688 778.247V765.38C244.688 764.935 244.829 764.571 245.113 764.288C245.396 763.984 245.76 763.832 246.205 763.832C246.63 763.832 246.984 763.984 247.267 764.288C247.571 764.571 247.722 764.935 247.722 765.38V767.079L247.176 767.383C247.318 766.938 247.56 766.493 247.904 766.048C248.269 765.582 248.703 765.157 249.209 764.773C249.715 764.369 250.281 764.055 250.909 763.832C251.536 763.59 252.203 763.468 252.911 763.468ZM261.646 777.306C261.464 777.023 261.383 776.699 261.403 776.335C261.424 775.95 261.636 775.627 262.041 775.364C262.324 775.182 262.617 775.111 262.921 775.151C263.244 775.172 263.548 775.323 263.831 775.607C264.398 776.234 265.025 776.729 265.713 777.093C266.421 777.458 267.27 777.64 268.262 777.64C268.666 777.619 269.081 777.559 269.506 777.458C269.931 777.336 270.295 777.134 270.598 776.851C270.902 776.547 271.053 776.112 271.053 775.546C271.053 775.04 270.892 774.635 270.568 774.332C270.244 774.029 269.819 773.786 269.293 773.604C268.767 773.401 268.201 773.219 267.594 773.057C266.947 772.875 266.289 772.673 265.622 772.451C264.974 772.228 264.387 771.945 263.861 771.601C263.336 771.237 262.901 770.771 262.557 770.205C262.233 769.639 262.071 768.941 262.071 768.111C262.071 767.16 262.334 766.341 262.86 765.653C263.406 764.965 264.104 764.429 264.954 764.045C265.824 763.66 266.765 763.468 267.776 763.468C268.363 763.468 268.98 763.549 269.627 763.711C270.275 763.853 270.902 764.085 271.509 764.409C272.116 764.733 272.642 765.157 273.087 765.683C273.289 765.946 273.4 766.26 273.42 766.624C273.461 766.988 273.299 767.312 272.935 767.595C272.692 767.798 272.399 767.889 272.055 767.868C271.711 767.848 271.428 767.737 271.205 767.535C270.821 767.049 270.325 766.675 269.718 766.412C269.111 766.129 268.423 765.987 267.655 765.987C267.27 765.987 266.866 766.048 266.441 766.169C266.036 766.27 265.692 766.462 265.409 766.746C265.126 767.029 264.984 767.444 264.984 767.99C264.984 768.496 265.146 768.9 265.47 769.204C265.814 769.507 266.259 769.76 266.805 769.962C267.351 770.165 267.948 770.347 268.595 770.508C269.223 770.67 269.84 770.862 270.447 771.085C271.074 771.308 271.63 771.601 272.116 771.965C272.621 772.309 273.026 772.764 273.329 773.331C273.653 773.877 273.815 774.575 273.815 775.424C273.815 776.416 273.522 777.265 272.935 777.974C272.368 778.661 271.64 779.187 270.75 779.551C269.88 779.916 268.96 780.098 267.989 780.098C266.835 780.098 265.682 779.895 264.529 779.491C263.396 779.066 262.435 778.338 261.646 777.306ZM284.513 780.098C282.834 780.098 281.377 779.754 280.143 779.066C278.909 778.358 277.948 777.397 277.26 776.183C276.593 774.949 276.259 773.543 276.259 771.965C276.259 770.185 276.613 768.667 277.321 767.413C278.049 766.139 278.99 765.168 280.143 764.5C281.296 763.812 282.52 763.468 283.815 763.468C284.806 763.468 285.747 763.671 286.637 764.075C287.527 764.46 288.316 765.006 289.004 765.714C289.712 766.402 290.269 767.221 290.673 768.172C291.078 769.102 291.29 770.124 291.31 771.237C291.29 771.641 291.128 771.975 290.825 772.238C290.521 772.501 290.167 772.633 289.763 772.633H277.958L277.23 770.053H288.64L288.063 770.599V769.841C288.023 769.133 287.79 768.516 287.365 767.99C286.941 767.444 286.415 767.029 285.787 766.746C285.16 766.442 284.503 766.29 283.815 766.29C283.208 766.29 282.621 766.392 282.055 766.594C281.509 766.776 281.013 767.079 280.568 767.504C280.143 767.929 279.799 768.496 279.536 769.204C279.293 769.891 279.172 770.751 279.172 771.783C279.172 772.896 279.405 773.867 279.87 774.696C280.335 775.526 280.963 776.173 281.751 776.638C282.54 777.083 283.41 777.306 284.361 777.306C285.11 777.306 285.727 777.235 286.212 777.093C286.698 776.932 287.102 776.739 287.426 776.517C287.75 776.294 288.033 776.082 288.276 775.88C288.579 775.698 288.883 775.607 289.186 775.607C289.55 775.607 289.854 775.738 290.097 776.001C290.339 776.244 290.461 776.537 290.461 776.881C290.461 777.326 290.238 777.731 289.793 778.095C289.247 778.621 288.488 779.086 287.517 779.491C286.566 779.895 285.565 780.098 284.513 780.098ZM294.528 764.014H301.659C302.064 764.014 302.398 764.156 302.661 764.439C302.944 764.702 303.085 765.036 303.085 765.441C303.085 765.825 302.944 766.149 302.661 766.412C302.398 766.675 302.064 766.806 301.659 766.806H294.528C294.123 766.806 293.779 766.675 293.496 766.412C293.233 766.129 293.102 765.795 293.102 765.41C293.102 765.006 293.233 764.672 293.496 764.409C293.779 764.146 294.123 764.014 294.528 764.014ZM297.714 760.07C298.159 760.07 298.524 760.221 298.807 760.525C299.09 760.808 299.232 761.172 299.232 761.617V775.698C299.232 776.062 299.292 776.355 299.414 776.578C299.535 776.8 299.697 776.952 299.899 777.033C300.122 777.114 300.344 777.154 300.567 777.154C300.789 777.154 300.982 777.114 301.143 777.033C301.325 776.952 301.538 776.911 301.781 776.911C302.023 776.911 302.246 777.023 302.448 777.245C302.651 777.468 302.752 777.771 302.752 778.156C302.752 778.641 302.489 779.036 301.963 779.339C301.437 779.643 300.87 779.794 300.263 779.794C299.919 779.794 299.515 779.764 299.05 779.703C298.584 779.643 298.129 779.491 297.684 779.248C297.259 779.005 296.905 778.621 296.622 778.095C296.339 777.549 296.197 776.79 296.197 775.819V761.617C296.197 761.172 296.339 760.808 296.622 760.525C296.925 760.221 297.289 760.07 297.714 760.07ZM322.812 762.497L315.984 778.884C315.863 779.208 315.681 779.46 315.438 779.643C315.195 779.825 314.922 779.916 314.619 779.916C314.174 779.916 313.84 779.794 313.617 779.551C313.395 779.288 313.273 778.965 313.253 778.58C313.253 778.439 313.284 778.277 313.344 778.095L321.052 759.463C321.194 759.119 321.396 758.856 321.659 758.674C321.942 758.492 322.246 758.411 322.569 758.431C322.873 758.431 323.156 758.522 323.419 758.704C323.682 758.886 323.874 759.139 323.996 759.463L331.612 777.822C331.693 778.024 331.734 778.226 331.734 778.429C331.734 778.874 331.582 779.238 331.279 779.521C330.995 779.784 330.672 779.916 330.308 779.916C330.004 779.916 329.721 779.825 329.458 779.643C329.215 779.44 329.033 779.187 328.912 778.884L322.023 762.588L322.812 762.497ZM317.198 774.575L318.564 771.662H327.152L327.667 774.575H317.198ZM333.867 763.681C334.17 763.681 334.453 763.762 334.716 763.923C334.999 764.085 335.202 764.328 335.323 764.652L340.087 775.667L339.511 775.94L344.336 764.682C344.619 764.014 345.074 763.691 345.701 763.711C346.106 763.711 346.44 763.843 346.703 764.106C346.986 764.348 347.128 764.672 347.128 765.077C347.128 765.198 347.107 765.329 347.067 765.471C347.026 765.592 346.976 765.714 346.915 765.835L341.149 778.823C340.886 779.43 340.452 779.754 339.845 779.794C339.541 779.835 339.238 779.774 338.934 779.612C338.651 779.43 338.428 779.167 338.267 778.823L332.531 765.835C332.491 765.754 332.45 765.653 332.41 765.532C332.369 765.39 332.349 765.228 332.349 765.046C332.349 764.743 332.481 764.439 332.744 764.136C333.027 763.832 333.401 763.681 333.867 763.681ZM357.503 780.098C355.824 780.098 354.367 779.754 353.133 779.066C351.899 778.358 350.938 777.397 350.25 776.183C349.583 774.949 349.249 773.543 349.249 771.965C349.249 770.185 349.603 768.667 350.311 767.413C351.039 766.139 351.98 765.168 353.133 764.5C354.286 763.812 355.51 763.468 356.805 763.468C357.796 763.468 358.737 763.671 359.627 764.075C360.517 764.46 361.306 765.006 361.994 765.714C362.702 766.402 363.258 767.221 363.663 768.172C364.068 769.102 364.28 770.124 364.3 771.237C364.28 771.641 364.118 771.975 363.815 772.238C363.511 772.501 363.157 772.633 362.753 772.633H350.948L350.22 770.053H361.63L361.053 770.599V769.841C361.013 769.133 360.78 768.516 360.355 767.99C359.93 767.444 359.404 767.029 358.777 766.746C358.15 766.442 357.493 766.29 356.805 766.29C356.198 766.29 355.611 766.392 355.045 766.594C354.499 766.776 354.003 767.079 353.558 767.504C353.133 767.929 352.789 768.496 352.526 769.204C352.283 769.891 352.162 770.751 352.162 771.783C352.162 772.896 352.395 773.867 352.86 774.696C353.325 775.526 353.952 776.173 354.741 776.638C355.53 777.083 356.4 777.306 357.351 777.306C358.1 777.306 358.717 777.235 359.202 777.093C359.688 776.932 360.092 776.739 360.416 776.517C360.74 776.294 361.023 776.082 361.266 775.88C361.569 775.698 361.873 775.607 362.176 775.607C362.54 775.607 362.844 775.738 363.086 776.001C363.329 776.244 363.451 776.537 363.451 776.881C363.451 777.326 363.228 777.731 362.783 778.095C362.237 778.621 361.478 779.086 360.507 779.491C359.556 779.895 358.555 780.098 357.503 780.098ZM375.235 777.306C375.053 777.023 374.972 776.699 374.993 776.335C375.013 775.95 375.225 775.627 375.63 775.364C375.913 775.182 376.206 775.111 376.51 775.151C376.834 775.172 377.137 775.323 377.42 775.607C377.987 776.234 378.614 776.729 379.302 777.093C380.01 777.458 380.859 777.64 381.851 777.64C382.255 777.619 382.67 777.559 383.095 777.458C383.52 777.336 383.884 777.134 384.187 776.851C384.491 776.547 384.642 776.112 384.642 775.546C384.642 775.04 384.481 774.635 384.157 774.332C383.833 774.029 383.408 773.786 382.882 773.604C382.356 773.401 381.79 773.219 381.183 773.057C380.536 772.875 379.878 772.673 379.211 772.451C378.563 772.228 377.977 771.945 377.451 771.601C376.925 771.237 376.49 770.771 376.146 770.205C375.822 769.639 375.66 768.941 375.66 768.111C375.66 767.16 375.923 766.341 376.449 765.653C376.995 764.965 377.693 764.429 378.543 764.045C379.413 763.66 380.354 763.468 381.365 763.468C381.952 763.468 382.569 763.549 383.216 763.711C383.864 763.853 384.491 764.085 385.098 764.409C385.705 764.733 386.231 765.157 386.676 765.683C386.878 765.946 386.989 766.26 387.009 766.624C387.05 766.988 386.888 767.312 386.524 767.595C386.281 767.798 385.988 767.889 385.644 767.868C385.3 767.848 385.017 767.737 384.794 767.535C384.41 767.049 383.914 766.675 383.307 766.412C382.7 766.129 382.013 765.987 381.244 765.987C380.859 765.987 380.455 766.048 380.03 766.169C379.625 766.27 379.281 766.462 378.998 766.746C378.715 767.029 378.573 767.444 378.573 767.99C378.573 768.496 378.735 768.9 379.059 769.204C379.403 769.507 379.848 769.76 380.394 769.962C380.94 770.165 381.537 770.347 382.184 770.508C382.812 770.67 383.429 770.862 384.036 771.085C384.663 771.308 385.219 771.601 385.705 771.965C386.21 772.309 386.615 772.764 386.918 773.331C387.242 773.877 387.404 774.575 387.404 775.424C387.404 776.416 387.111 777.265 386.524 777.974C385.957 778.661 385.229 779.187 384.339 779.551C383.469 779.916 382.549 780.098 381.578 780.098C380.424 780.098 379.271 779.895 378.118 779.491C376.985 779.066 376.024 778.338 375.235 777.306ZM403.746 763.772C404.191 763.772 404.556 763.923 404.839 764.227C405.122 764.51 405.264 764.874 405.264 765.319V784.316C405.264 784.761 405.122 785.125 404.839 785.408C404.556 785.712 404.191 785.863 403.746 785.863C403.321 785.863 402.957 785.712 402.654 785.408C402.371 785.125 402.229 784.761 402.229 784.316V776.062L402.866 776.092C402.866 776.456 402.715 776.871 402.411 777.336C402.128 777.781 401.733 778.216 401.228 778.641C400.722 779.066 400.125 779.42 399.437 779.703C398.749 779.966 398.011 780.098 397.222 780.098C395.826 780.098 394.572 779.744 393.459 779.036C392.346 778.307 391.466 777.326 390.819 776.092C390.172 774.838 389.848 773.401 389.848 771.783C389.848 770.165 390.172 768.738 390.819 767.504C391.466 766.25 392.336 765.269 393.429 764.561C394.541 763.832 395.776 763.468 397.131 763.468C397.981 763.468 398.77 763.61 399.498 763.893C400.246 764.176 400.894 764.54 401.44 764.986C401.986 765.431 402.411 765.906 402.715 766.412C403.018 766.897 403.17 767.363 403.17 767.808L402.229 767.899V765.319C402.229 764.894 402.371 764.53 402.654 764.227C402.957 763.923 403.321 763.772 403.746 763.772ZM397.556 777.306C398.527 777.306 399.366 777.063 400.075 776.578C400.803 776.092 401.369 775.435 401.774 774.605C402.178 773.776 402.381 772.835 402.381 771.783C402.381 770.731 402.178 769.79 401.774 768.961C401.369 768.131 400.803 767.474 400.075 766.988C399.346 766.503 398.507 766.26 397.556 766.26C396.625 766.26 395.796 766.503 395.067 766.988C394.359 767.474 393.793 768.131 393.368 768.961C392.963 769.79 392.761 770.731 392.761 771.783C392.761 772.835 392.963 773.776 393.368 774.605C393.793 775.435 394.359 776.092 395.067 776.578C395.796 777.063 396.625 777.306 397.556 777.306ZM421.41 763.832C421.835 763.832 422.189 763.984 422.472 764.288C422.776 764.571 422.928 764.935 422.928 765.38V773.361C422.928 775.465 422.341 777.114 421.168 778.307C419.994 779.481 418.335 780.067 416.191 780.067C414.067 780.067 412.418 779.481 411.245 778.307C410.091 777.114 409.515 775.465 409.515 773.361V765.38C409.515 764.935 409.656 764.571 409.94 764.288C410.223 763.984 410.587 763.832 411.032 763.832C411.457 763.832 411.811 763.984 412.094 764.288C412.398 764.571 412.549 764.935 412.549 765.38V773.361C412.549 774.676 412.853 775.657 413.46 776.304C414.087 776.952 414.997 777.276 416.191 777.276C417.405 777.276 418.325 776.952 418.952 776.304C419.58 775.657 419.893 774.676 419.893 773.361V765.38C419.893 764.935 420.035 764.571 420.318 764.288C420.601 763.984 420.965 763.832 421.41 763.832ZM440.226 763.59C440.671 763.59 441.036 763.741 441.319 764.045C441.602 764.328 441.744 764.692 441.744 765.137V778.247C441.744 778.692 441.602 779.066 441.319 779.369C441.036 779.653 440.671 779.794 440.226 779.794C439.802 779.794 439.437 779.653 439.134 779.369C438.851 779.066 438.709 778.692 438.709 778.247V776.062L439.346 776.153C439.346 776.517 439.195 776.922 438.891 777.367C438.608 777.812 438.213 778.247 437.708 778.671C437.202 779.076 436.605 779.42 435.917 779.703C435.229 779.966 434.491 780.098 433.702 780.098C432.306 780.098 431.052 779.744 429.939 779.036C428.827 778.307 427.946 777.316 427.299 776.062C426.652 774.807 426.328 773.381 426.328 771.783C426.328 770.144 426.652 768.708 427.299 767.474C427.946 766.22 428.816 765.238 429.909 764.53C431.022 763.822 432.256 763.468 433.611 763.468C434.481 763.468 435.28 763.61 436.008 763.893C436.757 764.176 437.404 764.54 437.95 764.986C438.497 765.431 438.911 765.906 439.195 766.412C439.498 766.897 439.65 767.363 439.65 767.808L438.709 767.899V765.137C438.709 764.712 438.851 764.348 439.134 764.045C439.437 763.741 439.802 763.59 440.226 763.59ZM434.036 777.306C434.987 777.306 435.826 777.063 436.555 776.578C437.283 776.092 437.849 775.435 438.254 774.605C438.659 773.755 438.861 772.815 438.861 771.783C438.861 770.731 438.659 769.79 438.254 768.961C437.849 768.131 437.283 767.474 436.555 766.988C435.826 766.503 434.987 766.26 434.036 766.26C433.105 766.26 432.276 766.503 431.548 766.988C430.839 767.474 430.273 768.131 429.848 768.961C429.444 769.79 429.241 770.731 429.241 771.783C429.241 772.815 429.444 773.755 429.848 774.605C430.273 775.435 430.839 776.092 431.548 776.578C432.276 777.063 433.105 777.306 434.036 777.306ZM459.074 757.338C459.519 757.338 459.883 757.48 460.166 757.763C460.45 758.046 460.591 758.421 460.591 758.886V778.247C460.591 778.692 460.45 779.066 460.166 779.369C459.883 779.653 459.519 779.794 459.074 779.794C458.649 779.794 458.285 779.653 457.982 779.369C457.698 779.066 457.557 778.692 457.557 778.247V776.062L458.194 776.092C458.194 776.456 458.042 776.871 457.739 777.336C457.456 777.781 457.061 778.216 456.555 778.641C456.049 779.066 455.453 779.42 454.765 779.703C454.077 779.966 453.339 780.098 452.55 780.098C451.154 780.098 449.899 779.744 448.787 779.036C447.674 778.307 446.794 777.326 446.147 776.092C445.499 774.838 445.176 773.401 445.176 771.783C445.176 770.165 445.499 768.738 446.147 767.504C446.794 766.25 447.664 765.269 448.756 764.561C449.869 763.832 451.103 763.468 452.459 763.468C453.308 763.468 454.097 763.61 454.826 763.893C455.574 764.176 456.221 764.54 456.768 764.986C457.314 765.431 457.739 765.906 458.042 766.412C458.346 766.897 458.497 767.363 458.497 767.808L457.557 767.899V758.886C457.557 758.441 457.698 758.077 457.982 757.794C458.285 757.49 458.649 757.338 459.074 757.338ZM452.883 777.306C453.854 777.306 454.694 777.063 455.402 776.578C456.13 776.092 456.697 775.435 457.101 774.605C457.506 773.776 457.708 772.835 457.708 771.783C457.708 770.731 457.506 769.79 457.101 768.961C456.697 768.131 456.13 767.474 455.402 766.988C454.674 766.503 453.834 766.26 452.883 766.26C451.953 766.26 451.123 766.503 450.395 766.988C449.687 767.474 449.121 768.131 448.696 768.961C448.291 769.79 448.089 770.731 448.089 771.783C448.089 772.835 448.291 773.776 448.696 774.605C449.121 775.435 449.687 776.092 450.395 776.578C451.123 777.063 451.953 777.306 452.883 777.306Z" fill="white"/>
<rect x="170.374" y="730.423" width="535.627" height="76.5181" rx="38.2591" stroke="#D1A227" stroke-width="0.968584"/>
<path d="M758.818 759.056H753.521V757.997C753.521 757.154 753.186 756.346 752.59 755.75C751.994 755.154 751.186 754.819 750.343 754.819H743.987C743.144 754.819 742.336 755.154 741.74 755.75C741.144 756.346 740.809 757.154 740.809 757.997V759.056H735.512C735.231 759.056 734.961 759.168 734.763 759.367C734.564 759.565 734.452 759.835 734.452 760.116C734.452 760.397 734.564 760.666 734.763 760.865C734.961 761.064 735.231 761.175 735.512 761.175H736.571V780.244C736.571 780.806 736.794 781.345 737.192 781.742C737.589 782.14 738.128 782.363 738.69 782.363H755.64C756.202 782.363 756.741 782.14 757.138 781.742C757.536 781.345 757.759 780.806 757.759 780.244V761.175H758.818C759.099 761.175 759.369 761.064 759.567 760.865C759.766 760.666 759.878 760.397 759.878 760.116C759.878 759.835 759.766 759.565 759.567 759.367C759.369 759.168 759.099 759.056 758.818 759.056ZM742.927 757.997C742.927 757.716 743.039 757.447 743.238 757.248C743.436 757.049 743.706 756.938 743.987 756.938H750.343C750.624 756.938 750.894 757.049 751.092 757.248C751.291 757.447 751.403 757.716 751.403 757.997V759.056H742.927V757.997ZM755.64 780.244H738.69V761.175H755.64V780.244ZM745.046 766.472V774.947C745.046 775.228 744.935 775.498 744.736 775.696C744.537 775.895 744.268 776.007 743.987 776.007C743.706 776.007 743.436 775.895 743.238 775.696C743.039 775.498 742.927 775.228 742.927 774.947V766.472C742.927 766.191 743.039 765.922 743.238 765.723C743.436 765.524 743.706 765.413 743.987 765.413C744.268 765.413 744.537 765.524 744.736 765.723C744.935 765.922 745.046 766.191 745.046 766.472ZM751.403 766.472V774.947C751.403 775.228 751.291 775.498 751.092 775.696C750.894 775.895 750.624 776.007 750.343 776.007C750.062 776.007 749.793 775.895 749.594 775.696C749.395 775.498 749.284 775.228 749.284 774.947V766.472C749.284 766.191 749.395 765.922 749.594 765.723C749.793 765.524 750.062 765.413 750.343 765.413C750.624 765.413 750.894 765.524 751.092 765.723C751.291 765.922 751.403 766.191 751.403 766.472Z" fill="white"/>
</svg>
